<svg width="320" height="320" viewBox="0 0 320 320" fill="none" xmlns="http://www.w3.org/2000/svg">
  <defs>
    <linearGradient id="bg" x1="40" y1="28" x2="280" y2="292" gradientUnits="userSpaceOnUse">
      <stop stop-color="#103C34"/>
      <stop offset="1" stop-color="#0F766E"/>
    </linearGradient>
    <linearGradient id="sun" x1="120" y1="56" x2="232" y2="148" gradientUnits="userSpaceOnUse">
      <stop stop-color="#F6D365"/>
      <stop offset="1" stop-color="#F59E0B"/>
    </linearGradient>
    <linearGradient id="shield" x1="84" y1="96" x2="238" y2="260" gradientUnits="userSpaceOnUse">
      <stop stop-color="#F8FBF7"/>
      <stop offset="1" stop-color="#DFF4EA"/>
    </linearGradient>
  </defs>
  <rect x="28" y="28" width="264" height="264" rx="72" fill="url(#bg)"/>
  <circle cx="214" cy="102" r="44" fill="url(#sun)" fill-opacity="0.95"/>
  <path d="M90 165C90 129.654 118.654 101 154 101H166C201.346 101 230 129.654 230 165V190C230 227.555 199.555 258 162 258H158C120.445 258 90 227.555 90 190V165Z" fill="url(#shield)"/>
  <path d="M110 196C130 175.333 147.667 165 163 165C178.333 165 196 175.333 216 196" stroke="#0F766E" stroke-width="16" stroke-linecap="round"/>
  <path d="M126 147C134.667 138.333 146.667 134 162 134C177.333 134 189.333 138.333 198 147" stroke="#103C34" stroke-width="14" stroke-linecap="round"/>
  <path d="M160 70L168 86L186 88L173 101L176 119L160 111L144 119L147 101L134 88L152 86L160 70Z" fill="#F8FAFC"/>
  <path d="M64 215C88 194.333 111 184 133 184" stroke="#FDE68A" stroke-width="8" stroke-linecap="round" opacity="0.8"/>
  <path d="M190 184C212 184 235 194.333 259 215" stroke="#BBF7D0" stroke-width="8" stroke-linecap="round" opacity="0.75"/>
  <path d="M108 239H214" stroke="#103C34" stroke-width="10" stroke-linecap="round"/>
  <circle cx="113" cy="239" r="11" fill="#F59E0B"/>
  <circle cx="213" cy="239" r="11" fill="#0F766E"/>
</svg>
