<svg width="320" height="320" viewBox="0 0 320 320" fill="none" xmlns="http://www.w3.org/2000/svg">
  <defs>
    <linearGradient id="outer" x1="44" y1="30" x2="280" y2="292" gradientUnits="userSpaceOnUse">
      <stop stop-color="#173C73"/>
      <stop offset="1" stop-color="#1E5AA8"/>
    </linearGradient>
    <linearGradient id="bell" x1="126" y1="104" x2="191" y2="206" gradientUnits="userSpaceOnUse">
      <stop stop-color="#F7D56A"/>
      <stop offset="1" stop-color="#C99C29"/>
    </linearGradient>
  </defs>
  <circle cx="160" cy="160" r="130" fill="url(#outer)"/>
  <circle cx="160" cy="160" r="112" stroke="#F3D27A" stroke-width="12"/>
  <path d="M92 214C103.2 183.2 127.2 168 164 168C200.8 168 224.8 183.2 236 214" stroke="#2E6B51" stroke-width="11" stroke-linecap="round"/>
  <path d="M125 187C136.2 177.6 149.2 173 164 173C178.8 173 191.8 177.6 203 187" stroke="#5EA77D" stroke-width="9" stroke-linecap="round"/>
  <path d="M160 92C158.2 107.4 152.4 118.6 142.6 125.6C132.8 132.6 128 144.2 128 160H194C194 143.8 189.2 132.2 179.4 125.2C169.6 118.2 163.8 107.2 162 92H160Z" fill="url(#bell)"/>
  <path d="M134 160H188" stroke="#A27718" stroke-width="8" stroke-linecap="round"/>
  <circle cx="161" cy="173" r="10" fill="#A27718"/>
  <path d="M160 76L166.5 89.5L181 91.5L170.5 101.5L173 116L160 109.2L147 116L149.5 101.5L139 91.5L153.5 89.5L160 76Z" fill="#F7D56A"/>
  <path d="M104 213C95.2 196.2 93.4 180 98.6 164.4C103.8 148.8 114 136.4 129.2 127.2" stroke="#F3D27A" stroke-width="7" stroke-linecap="round"/>
  <path d="M216 213C224.8 196.2 226.6 180 221.4 164.4C216.2 148.8 206 136.4 190.8 127.2" stroke="#F3D27A" stroke-width="7" stroke-linecap="round"/>
  <path d="M85 243C106 220.333 125 209 142 209" stroke="#EAF5EC" stroke-width="8" stroke-linecap="round"/>
  <path d="M235 243C214 220.333 195 209 178 209" stroke="#EAF5EC" stroke-width="8" stroke-linecap="round"/>
  <path d="M98 255C115 239.667 130.333 232 144 232" stroke="#7DBA91" stroke-width="6" stroke-linecap="round"/>
  <path d="M222 255C205 239.667 189.667 232 176 232" stroke="#7DBA91" stroke-width="6" stroke-linecap="round"/>
  <path d="M95 92C115 76 137 68 161 68C185 68 207 76 227 92" stroke="#F3D27A" stroke-width="6" stroke-linecap="round" opacity="0.95"/>
  <path d="M112 104C127.333 94 143.333 89 160 89C176.667 89 192.667 94 208 104" stroke="#F8FCFF" stroke-width="5" stroke-linecap="round" opacity="0.85"/>
</svg>
